<svg width="560" height="120" viewBox="0 0 560 120" fill="none" xmlns="http://www.w3.org/2000/svg" role="img" aria-labelledby="bvTitle bvDesc">
  <title id="bvTitle">BeatVault logo</title>
  <desc id="bvDesc">Neon cyan and magenta wordmark for BeatVault</desc>
  <defs>
    <linearGradient id="bvGradient" x1="10" y1="10" x2="550" y2="110" gradientUnits="userSpaceOnUse">
      <stop stop-color="#4EF3FF" />
      <stop offset="0.5" stop-color="#7EF0FF" />
      <stop offset="1" stop-color="#FF3AD4" />
    </linearGradient>
    <filter id="bvGlow" x="-30" y="-30" width="620" height="180" filterUnits="userSpaceOnUse" color-interpolation-filters="sRGB">
      <feGaussianBlur stdDeviation="16" result="blur" />
      <feMerge>
        <feMergeNode in="blur" />
        <feMergeNode in="SourceGraphic" />
      </feMerge>
    </filter>
  </defs>
  <rect x="4" y="4" width="552" height="112" rx="18" fill="rgba(10,14,30,0.7)" stroke="url(#bvGradient)" stroke-width="3" />
  <path filter="url(#bvGlow)" fill="url(#bvGradient)" d="M82 86H52V32H82C98 32 108 40 108 49.5C108 56.5 103.5 61.5 96.5 63.5C104.5 65.5 110 71 110 79C110 88 101 86 82 86ZM73 55.5H82C87.5 55.5 90.5 53.5 90.5 49.5C90.5 45.5 87.5 43.5 82 43.5H73V55.5ZM73 65.5V74.5H83C89 74.5 92.5 72.5 92.5 69C92.5 65.5 89 63.5 83 63.5H73Z" />
  <path filter="url(#bvGlow)" fill="url(#bvGradient)" d="M134 86V32H173V43.5H149.5V54H170.5V65.5H149.5V74.5H173V86H134Z" />
  <path filter="url(#bvGlow)" fill="url(#bvGradient)" d="M204.5 87.5C189 87.5 178 76.5 178 59.5C178 42.5 189 31.5 204.5 31.5C220 31.5 231 42.5 231 59.5C231 76.5 220 87.5 204.5 87.5ZM204.5 74.5C212.5 74.5 215.5 67.5 215.5 59.5C215.5 51.5 212.5 44.5 204.5 44.5C196.5 44.5 193.5 51.5 193.5 59.5C193.5 67.5 196.5 74.5 204.5 74.5Z" />
  <path filter="url(#bvGlow)" fill="url(#bvGradient)" d="M242 86V32H257L270.5 57L284 32H299.5V86H285.5V57.5L270.5 83L255.5 57.5V86H242Z" />
  <path filter="url(#bvGlow)" fill="url(#bvGradient)" d="M312 86V32H351V43.5H327.5V54H348.5V65.5H327.5V74.5H351V86H312Z" />
  <path filter="url(#bvGlow)" fill="url(#bvGradient)" d="M363 86V32H380L392 51.5L404 32H421V86H406.5V52.5L392 72L377.5 52.5V86H363Z" />
  <path filter="url(#bvGlow)" fill="url(#bvGradient)" d="M434 86V32H449L462.5 57L476 32H491.5V86H477.5V57.5L462.5 83L447.5 57.5V86H434Z" />
  <path filter="url(#bvGlow)" fill="url(#bvGradient)" d="M510 86V32H549V43.5H525.5V54H546.5V65.5H525.5V74.5H549V86H510Z" />
</svg>
