<svg width="200" height="220" viewBox="0 0 200 220" fill="none" xmlns="http://www.w3.org/2000/svg" role="img" aria-labelledby="title desc">
  <title id="title">Music Producer Lab stacked neon logo</title>
  <desc id="desc">Stacked neon icon above Music Producer Lab wordmark.</desc>
  <defs>
    <linearGradient id="stackGrad" x1="14" y1="10" x2="186" y2="128" gradientUnits="userSpaceOnUse">
      <stop stop-color="#63FFF4" />
      <stop offset="0.5" stop-color="#5CC4FF" />
      <stop offset="1" stop-color="#C58DFF" />
    </linearGradient>
    <linearGradient id="stackAlt" x1="30" y1="30" x2="160" y2="150" gradientUnits="userSpaceOnUse">
      <stop stop-color="#FFD86B" stop-opacity="0.95" />
      <stop offset="1" stop-color="#63FFF4" stop-opacity="0.95" />
    </linearGradient>
  </defs>
  <g filter="url(#stackGlow)">
    <path
      d="M40 46C40 37.1634 47.1634 30 56 30H144C152.837 30 160 37.1634 160 46V118C160 126.837 152.837 134 144 134H56C47.1634 134 40 126.837 40 118V46Z"
      fill="#0B1126"
      stroke="url(#stackGrad)"
      stroke-width="3"
    />
    <path
      d="M66 104L82 70L102 102L122 66L140 102"
      stroke="url(#stackAlt)"
      stroke-width="10"
      stroke-linecap="round"
      stroke-linejoin="round"
    />
  </g>
  <g fill="url(#stackGrad)" filter="url(#stackTextGlow)">
    <text x="24" y="178" font-family="Orbitron, 'Inter', sans-serif" font-size="22" font-weight="700" letter-spacing="2.2">
      MUSIC PRODUCER LAB
    </text>
    <text x="24" y="200" font-family="JetBrains Mono, 'Inter', sans-serif" font-size="11" font-weight="600" letter-spacing="1.2" fill="#E8F2FF">
      INTERACTIVE NEON MUSIC TRAINING
    </text>
  </g>
  <defs>
    <filter id="stackGlow" x="28" y="20" width="144" height="124" filterUnits="userSpaceOnUse" color-interpolation-filters="sRGB">
      <feDropShadow dx="0" dy="0" stdDeviation="10" flood-color="rgba(99,255,244,0.45)" />
      <feDropShadow dx="0" dy="0" stdDeviation="16" flood-color="rgba(197,141,255,0.35)" />
    </filter>
    <filter id="stackTextGlow" x="14" y="162" width="180" height="48" filterUnits="userSpaceOnUse" color-interpolation-filters="sRGB">
      <feDropShadow dx="0" dy="0" stdDeviation="8" flood-color="rgba(99,255,244,0.45)" />
      <feDropShadow dx="0" dy="0" stdDeviation="12" flood-color="rgba(197,141,255,0.35)" />
    </filter>
  </defs>
</svg>
